<svg width="24" height="24" viewBox="0 0 24 24" fill="none" xmlns="http://www.w3.org/2000/svg">
<g clip-path="url(#clip0_891_1114)">
<path d="M5.684 12C5.51656 11.9997 5.35606 11.933 5.23775 11.8145C5.11945 11.696 5.053 11.5354 5.053 11.368V4.421C5.053 4.072 5.335 3.789 5.684 3.789H8.054C8.514 3.789 8.943 3.836 9.341 3.928C9.748 4.012 10.099 4.158 10.394 4.368C10.697 4.57 10.935 4.843 11.109 5.188C11.282 5.523 11.369 5.938 11.369 6.434C11.369 6.913 11.277 7.328 11.096 7.681C10.9308 8.02381 10.6856 8.32185 10.381 8.55C10.0649 8.78261 9.70759 8.95328 9.328 9.053C8.93 9.163 8.505 9.217 8.055 9.217H7.595C7.42738 9.217 7.26663 9.28359 7.14811 9.40211C7.02959 9.52063 6.963 9.68138 6.963 9.849V11.369C6.96273 11.5364 6.89603 11.6969 6.77754 11.8152C6.65904 11.9336 6.49844 12 6.331 12H5.684ZM6.963 7.112C6.963 7.461 7.246 7.744 7.595 7.744H7.938C8.978 7.744 9.498 7.307 9.498 6.434C9.498 6.006 9.363 5.704 9.094 5.527C8.834 5.351 8.449 5.263 7.938 5.263H7.595C7.42756 5.263 7.26696 5.32945 7.14846 5.44775C7.02997 5.56606 6.96326 5.72656 6.963 5.894V7.112ZM13.263 20.21C13.0957 20.2097 12.9354 20.1432 12.8171 20.0249C12.6988 19.9066 12.6323 19.7463 12.632 19.579V12.632C12.6317 12.549 12.6479 12.4668 12.6795 12.3901C12.7111 12.3133 12.7575 12.2436 12.8162 12.1849C12.8748 12.1261 12.9445 12.0796 13.0211 12.0479C13.0978 12.0161 13.18 11.9999 13.263 12H15.466C15.906 12 16.311 12.034 16.682 12.1C17.062 12.16 17.39 12.269 17.666 12.428C17.942 12.588 18.158 12.798 18.313 13.058C18.477 13.318 18.559 13.645 18.559 14.04C18.559 14.225 18.529 14.41 18.469 14.594C18.4157 14.7809 18.3275 14.956 18.209 15.11C17.9449 15.4638 17.5635 15.712 17.133 15.81C17.1264 15.8118 17.1206 15.8157 17.1164 15.8211C17.1122 15.8265 17.11 15.8332 17.11 15.84C17.11 15.855 17.12 15.868 17.135 15.87C17.726 15.981 18.175 16.19 18.481 16.496C18.792 16.806 18.947 17.239 18.947 17.793C18.947 18.213 18.865 18.573 18.701 18.876C18.5364 19.1789 18.3015 19.4378 18.016 19.631C17.6976 19.8346 17.3474 19.9836 16.98 20.072C16.5642 20.1676 16.1386 20.2142 15.712 20.211L13.263 20.21ZM14.534 14.668C14.534 15.017 14.817 15.299 15.166 15.299H15.376C15.841 15.299 16.178 15.211 16.385 15.035C16.592 14.859 16.695 14.611 16.695 14.292C16.695 13.99 16.588 13.776 16.372 13.65C16.165 13.515 15.837 13.448 15.388 13.448H15.166C14.9984 13.448 14.8376 13.5146 14.7191 13.6331C14.6006 13.7516 14.534 13.9124 14.534 14.08V14.668ZM14.534 18.131C14.534 18.48 14.817 18.762 15.166 18.762H15.556C16.575 18.762 17.084 18.393 17.084 17.654C17.084 17.294 16.959 17.033 16.708 16.874C16.467 16.714 16.083 16.634 15.556 16.634H15.166C14.9984 16.634 14.8376 16.7006 14.7191 16.8191C14.6006 16.9376 14.534 17.0984 14.534 17.266V18.131ZM1.389 0C0.629 0 0 0.629 0 1.389V15.03C0.00261501 15.3977 0.149764 15.7496 0.409659 16.0096C0.669554 16.2697 1.02133 16.4171 1.389 16.42H8.21C8.37727 16.4195 8.53751 16.3527 8.6556 16.2342C8.77369 16.1157 8.84 15.9553 8.84 15.788C8.83947 15.6211 8.77293 15.4611 8.65489 15.3431C8.53686 15.2251 8.37692 15.1585 8.21 15.158H1.389C1.311 15.158 1.264 15.108 1.264 15.03V1.39C1.264 1.312 1.311 1.265 1.389 1.265H15.03C15.108 1.265 15.157 1.312 15.157 1.39V8.21C15.1575 8.3771 15.2242 8.53718 15.3425 8.65525C15.4607 8.77331 15.6209 8.83974 15.788 8.84C15.9554 8.84027 16.1162 8.77407 16.2348 8.65595C16.3535 8.53783 16.4205 8.37744 16.421 8.21V1.389C16.4181 1.0215 16.2709 0.669875 16.011 0.410008C15.7511 0.15014 15.3995 0.0028763 15.032 0L1.389 0ZM15.79 7.578C15.7069 7.578 15.6247 7.59438 15.5479 7.6262C15.4712 7.65803 15.4015 7.70467 15.3428 7.76346C15.2841 7.82225 15.2375 7.89204 15.2058 7.96884C15.1741 8.04563 15.1579 8.12792 15.158 8.211C15.1585 8.3781 15.2252 8.53818 15.3435 8.65625C15.4617 8.77431 15.6219 8.84074 15.789 8.841H22.611C22.689 8.841 22.736 8.891 22.736 8.969V22.61C22.736 22.688 22.689 22.735 22.611 22.735H8.97C8.893 22.735 8.843 22.688 8.843 22.61V15.79C8.84247 15.6229 8.77579 15.4628 8.65754 15.3448C8.53929 15.2267 8.3791 15.1603 8.212 15.16C8.04456 15.1597 7.88385 15.2259 7.76517 15.344C7.64649 15.4622 7.57953 15.6226 7.579 15.79V22.612C7.58214 22.9793 7.72952 23.3307 7.98936 23.5903C8.2492 23.85 8.60068 23.9971 8.968 24H22.611C23.371 24 24 23.371 24 22.611V8.97C23.9974 8.60233 23.8502 8.25045 23.5903 7.99036C23.3304 7.73028 22.9787 7.58288 22.611 7.58L15.79 7.578Z" fill="#B8DBE4"/>
</g>
<defs>
<clipPath id="clip0_891_1114">
<rect width="24" height="24" fill="white"/>
</clipPath>
</defs>
</svg>
