<svg width="51" height="50" viewBox="0 0 51 50" fill="none" xmlns="http://www.w3.org/2000/svg">
<g clip-path="url(#clip0_891_739)">
<mask id="mask0_891_739" style="mask-type:luminance" maskUnits="userSpaceOnUse" x="0" y="0" width="51" height="50">
<path d="M35.6019 49.7253C36.0013 49.8811 36.4285 49.953 36.8569 49.9365C37.2853 49.92 37.7058 49.8156 38.0921 49.6296L48.4269 44.6568C48.9592 44.4005 49.4083 43.9992 49.7226 43.499C50.0368 42.9988 50.2035 42.42 50.2035 41.8292V8.10955C50.2035 7.51883 50.0368 6.9401 49.7225 6.43992C49.4082 5.93975 48.9591 5.53845 48.4269 5.28219L38.0923 0.309154C37.5083 0.0282384 36.8514 -0.064236 36.2126 0.0445254C35.5737 0.153287 34.9844 0.457908 34.5263 0.916241L14.7415 18.9664L6.12335 12.4247C5.73461 12.1296 5.25483 11.9799 4.76726 12.0016C4.27968 12.0233 3.81508 12.215 3.45406 12.5434L0.690087 15.0578C-0.22133 15.8867 -0.222314 17.3206 0.687725 18.1509L8.16154 24.9694L0.687725 31.7877C-0.222314 32.6182 -0.22133 34.0519 0.690087 34.881L3.45406 37.3952C3.81506 37.7236 4.27964 37.9154 4.76722 37.9371C5.25479 37.9588 5.73459 37.8091 6.12335 37.5141L14.7415 30.9721L34.5263 49.0223C34.8322 49.3287 35.1985 49.5681 35.6019 49.7253ZM37.6617 13.5739L22.6495 24.9694L37.6617 36.3647V13.5739Z" fill="white"/>
</mask>
<g mask="url(#mask0_891_739)">
<path d="M48.4576 5.28979L38.1147 0.309869C37.5305 0.0286389 36.8734 -0.0640806 36.2343 0.0445412C35.5952 0.153163 35.0056 0.457755 34.5471 0.916168L0.688094 31.7876C-0.222536 32.6181 -0.221355 34.0518 0.690456 34.8809L3.4562 37.3951C3.81752 37.7236 4.2824 37.9154 4.77026 37.9371C5.25812 37.9588 5.73819 37.8091 6.12727 37.514L46.9013 6.58172C48.2692 5.54412 50.234 6.51971 50.234 8.23664V8.11656C50.2339 7.52596 50.0672 6.94737 49.7529 6.44731C49.4387 5.94726 48.9897 5.54604 48.4576 5.28979Z" fill="#0065A9"/>
</g>
<mask id="mask1_891_739" style="mask-type:luminance" maskUnits="userSpaceOnUse" x="0" y="0" width="51" height="50">
<path d="M35.6019 49.7253C36.0013 49.8811 36.4285 49.953 36.8569 49.9365C37.2853 49.92 37.7058 49.8156 38.0921 49.6296L48.4269 44.6568C48.9592 44.4005 49.4083 43.9992 49.7226 43.499C50.0368 42.9988 50.2035 42.42 50.2035 41.8292V8.10955C50.2035 7.51883 50.0368 6.9401 49.7225 6.43992C49.4082 5.93975 48.9591 5.53845 48.4269 5.28219L38.0923 0.309154C37.5083 0.0282384 36.8514 -0.064236 36.2126 0.0445254C35.5737 0.153287 34.9844 0.457908 34.5263 0.916241L14.7415 18.9664L6.12335 12.4247C5.73461 12.1296 5.25483 11.9799 4.76726 12.0016C4.27968 12.0233 3.81508 12.215 3.45406 12.5434L0.690087 15.0578C-0.22133 15.8867 -0.222314 17.3206 0.687725 18.1509L8.16154 24.9694L0.687725 31.7877C-0.222314 32.6182 -0.22133 34.0519 0.690087 34.881L3.45406 37.3952C3.81506 37.7236 4.27964 37.9154 4.76722 37.9371C5.25479 37.9588 5.73459 37.8091 6.12335 37.5141L14.7415 30.9721L34.5263 49.0223C34.8322 49.3287 35.1985 49.5681 35.6019 49.7253ZM37.6617 13.5739L22.6495 24.9694L37.6617 36.3647V13.5739Z" fill="white"/>
</mask>
<g mask="url(#mask1_891_739)">
<path d="M48.4576 44.6488L38.1147 49.6287C37.5305 49.9098 36.8734 50.0024 36.2343 49.8938C35.5952 49.7852 35.0057 49.4807 34.5471 49.0224L0.688094 18.151C-0.222536 17.3207 -0.221355 15.8868 0.690456 15.0579L3.4562 12.5435C3.81754 12.215 4.28243 12.0233 4.77029 12.0016C5.25815 11.9799 5.73822 12.1296 6.12727 12.4248L46.9013 43.3569C48.2692 44.3945 50.234 43.4189 50.234 41.7018V41.822C50.2339 42.4126 50.0672 42.9912 49.7529 43.4913C49.4387 43.9913 48.9897 44.3926 48.4576 44.6488Z" fill="#007ACC"/>
</g>
<mask id="mask2_891_739" style="mask-type:luminance" maskUnits="userSpaceOnUse" x="0" y="0" width="51" height="50">
<path d="M35.6019 49.7253C36.0013 49.8811 36.4285 49.953 36.8569 49.9365C37.2853 49.92 37.7058 49.8156 38.0921 49.6296L48.4269 44.6568C48.9592 44.4005 49.4083 43.9992 49.7226 43.499C50.0368 42.9988 50.2035 42.42 50.2035 41.8292V8.10955C50.2035 7.51883 50.0368 6.9401 49.7225 6.43992C49.4082 5.93975 48.9591 5.53845 48.4269 5.28219L38.0923 0.309154C37.5083 0.0282384 36.8514 -0.064236 36.2126 0.0445254C35.5737 0.153287 34.9844 0.457908 34.5263 0.916241L14.7415 18.9664L6.12335 12.4247C5.73461 12.1296 5.25483 11.9799 4.76726 12.0016C4.27968 12.0233 3.81508 12.215 3.45406 12.5434L0.690087 15.0578C-0.22133 15.8867 -0.222314 17.3206 0.687725 18.1509L8.16154 24.9694L0.687725 31.7877C-0.222314 32.6182 -0.22133 34.0519 0.690087 34.881L3.45406 37.3952C3.81506 37.7236 4.27964 37.9154 4.76722 37.9371C5.25479 37.9588 5.73459 37.8091 6.12335 37.5141L14.7415 30.9721L34.5263 49.0223C34.8322 49.3287 35.1985 49.5681 35.6019 49.7253ZM37.6617 13.5739L22.6495 24.9694L37.6617 36.3647V13.5739Z" fill="white"/>
</mask>
<g mask="url(#mask2_891_739)">
<path d="M38.0826 49.6327C37.4983 49.9138 36.8411 50.0064 36.2019 49.8976C35.5627 49.7889 34.9731 49.4843 34.5146 49.0258C35.6723 50.1833 37.6521 49.3634 37.6521 47.726V2.2191C37.6521 0.581696 35.6723 -0.238186 34.5146 0.919491C34.9731 0.460991 35.5627 0.156286 36.2019 0.0475267C36.8411 -0.0612331 37.4983 0.0313274 38.0826 0.312404L48.4237 5.28544C48.9561 5.54156 49.4054 5.9428 49.7199 6.44298C50.0344 6.94317 50.2012 7.52197 50.2013 8.1128V41.8327C50.2013 43.0384 49.5103 44.1376 48.4237 44.66L38.0826 49.6327Z" fill="#1F9CF0"/>
</g>
<mask id="mask3_891_739" style="mask-type:luminance" maskUnits="userSpaceOnUse" x="0" y="0" width="51" height="50">
<path d="M35.6019 49.7253C36.0013 49.8811 36.4285 49.953 36.8569 49.9365C37.2853 49.92 37.7058 49.8156 38.0921 49.6296L48.4269 44.6568C48.9592 44.4005 49.4083 43.9992 49.7226 43.499C50.0368 42.9988 50.2035 42.42 50.2035 41.8292V8.10955C50.2035 7.51883 50.0368 6.9401 49.7225 6.43992C49.4082 5.93975 48.9591 5.53845 48.4269 5.28219L38.0923 0.309154C37.5083 0.0282384 36.8514 -0.064236 36.2126 0.0445254C35.5737 0.153287 34.9844 0.457908 34.5263 0.916241L14.7415 18.9664L6.12335 12.4247C5.73461 12.1296 5.25483 11.9799 4.76726 12.0016C4.27968 12.0233 3.81508 12.215 3.45406 12.5434L0.690087 15.0578C-0.22133 15.8867 -0.222314 17.3206 0.687725 18.1509L8.16154 24.9694L0.687725 31.7877C-0.222314 32.6182 -0.22133 34.0519 0.690087 34.881L3.45406 37.3952C3.81506 37.7236 4.27964 37.9154 4.76722 37.9371C5.25479 37.9588 5.73459 37.8091 6.12335 37.5141L14.7415 30.9721L34.5263 49.0223C34.8322 49.3287 35.1985 49.5681 35.6019 49.7253ZM37.6617 13.5739L22.6495 24.9694L37.6617 36.3647V13.5739Z" fill="white"/>
</mask>
<g mask="url(#mask3_891_739)">
<path d="M35.6019 49.7253C36.0013 49.8811 36.4285 49.953 36.8569 49.9365C37.2853 49.9201 37.7058 49.8156 38.0921 49.6297L48.4267 44.6566C48.959 44.4004 49.4081 43.9991 49.7224 43.4989C50.0368 42.9988 50.2035 42.42 50.2035 41.8293V8.10959C50.2035 7.51887 50.0368 6.94014 49.7225 6.43996C49.4082 5.93979 48.9591 5.53849 48.4269 5.28223L38.0919 0.308999C37.5079 0.0281281 36.8511 -0.0643218 36.2123 0.0444386C35.5735 0.153199 34.9842 0.457794 34.5261 0.916085L14.7415 18.9665L6.12335 12.4247C5.73461 12.1297 5.25483 11.98 4.76726 12.0016C4.27968 12.0233 3.81508 12.215 3.45406 12.5434L0.690087 15.0578C-0.22133 15.8868 -0.222314 17.3206 0.687725 18.1509L8.16154 24.9694L0.687725 31.7877C-0.222314 32.6182 -0.22133 34.0519 0.690087 34.881L3.45406 37.3952C3.81506 37.7237 4.27964 37.9154 4.76722 37.9371C5.25479 37.9588 5.73459 37.8092 6.12335 37.5141L14.7415 30.9722L34.5261 49.0224C34.8322 49.3286 35.1985 49.568 35.6019 49.7253ZM37.6617 13.5738L22.6495 24.9694L37.6617 36.3647V13.5738Z" fill="url(#paint0_linear_891_739)" fill-opacity="0.25"/>
</g>
</g>
<defs>
<linearGradient id="paint0_linear_891_739" x1="2509.89" y1="9.15527e-05" x2="2509.89" y2="4993.88" gradientUnits="userSpaceOnUse">
<stop stop-color="white"/>
<stop offset="1" stop-color="white" stop-opacity="0"/>
</linearGradient>
<clipPath id="clip0_891_739">
<rect width="50.4062" height="50" fill="white"/>
</clipPath>
</defs>
</svg>
