<svg width="34" height="50" viewBox="0 0 34 50" fill="none" xmlns="http://www.w3.org/2000/svg">
<g clip-path="url(#clip0_891_733)">
<path d="M8.33822 50C12.9382 50 16.6716 46.2667 16.6716 41.6667V33.3333H8.33822C3.73822 33.3333 0.00488281 37.0667 0.00488281 41.6667C0.00488281 46.2667 3.73822 50 8.33822 50Z" fill="#0ACF83"/>
<path d="M0.00488281 25C0.00488281 20.4 3.73822 16.6667 8.33822 16.6667H16.6716V33.3333H8.33822C3.73822 33.3333 0.00488281 29.6 0.00488281 25Z" fill="#A259FF"/>
<path d="M0.00488281 8.33333C0.00488281 3.73333 3.73822 0 8.33822 0H16.6716V16.6667H8.33822C3.73822 16.6667 0.00488281 12.9333 0.00488281 8.33333Z" fill="#F24E1E"/>
<path d="M16.6719 0H25.0052C29.6052 0 33.3385 3.73333 33.3385 8.33333C33.3385 12.9333 29.6052 16.6667 25.0052 16.6667H16.6719V0Z" fill="#FF7262"/>
<path d="M33.3385 25C33.3385 29.6 29.6052 33.3333 25.0052 33.3333C20.4052 33.3333 16.6719 29.6 16.6719 25C16.6719 20.4 20.4052 16.6667 25.0052 16.6667C29.6052 16.6667 33.3385 20.4 33.3385 25Z" fill="#1ABCFE"/>
</g>
<defs>
<clipPath id="clip0_891_733">
<rect width="33.3438" height="50" fill="white"/>
</clipPath>
</defs>
</svg>
