<svg width="52" height="50" viewBox="0 0 52 50" fill="none" xmlns="http://www.w3.org/2000/svg">
<g clip-path="url(#clip0_619_1354)">
<path d="M42.702 0H8.50195C3.80753 0 0.00195312 3.80558 0.00195312 8.5V41.42C0.00195312 46.1144 3.80753 49.92 8.50195 49.92H42.702C47.3964 49.92 51.202 46.1144 51.202 41.42V8.5C51.202 3.80558 47.3964 0 42.702 0Z" fill="#330000"/>
<path d="M24.8128 29.958H16.8788L15.2644 34.9727C15.2424 35.0641 15.1892 35.1451 15.114 35.2015C15.0387 35.2579 14.9461 35.2864 14.8522 35.2819H10.8336C10.6045 35.2819 10.5244 35.1559 10.5932 34.9039L17.4626 15.1203C17.5312 14.9143 17.5999 14.6796 17.6686 14.4163C17.7586 13.9579 17.8046 13.4923 17.806 13.0253C17.8013 12.9926 17.8043 12.9593 17.8147 12.928C17.8251 12.8967 17.8427 12.8682 17.866 12.8449C17.8894 12.8215 17.9178 12.8039 17.9491 12.7935C17.9804 12.783 18.0137 12.78 18.0464 12.7847H23.5076C23.6676 12.7847 23.7592 12.842 23.7824 12.9566L31.579 34.9383C31.6476 35.1676 31.579 35.2821 31.373 35.2819H26.9078C26.8311 35.2902 26.754 35.2705 26.6909 35.2262C26.6277 35.182 26.5827 35.1163 26.5644 35.0415L24.8128 29.958ZM18.1152 25.6305H23.542L23.4646 25.3751L23.3404 24.9707L23.2518 24.6867L23.1104 24.2395L22.8098 23.2981L22.5454 22.4635L21.8588 20.2895C21.6879 19.749 21.5239 19.2064 21.3668 18.6619L21.2412 18.2199L21.0944 17.6973L20.8704 16.8873L20.8284 16.7347H20.7942C20.6223 17.5591 20.413 18.3752 20.167 19.1807L19.6574 20.8199L19.377 21.7255L19.094 22.6423C19.0429 22.8079 18.9919 22.9716 18.941 23.1335L18.789 23.6131L18.6378 24.0815L18.4874 24.5383L18.3378 24.9837C18.2882 25.1303 18.2386 25.275 18.1892 25.4177L18.1152 25.6305ZM36.2154 16.4255C35.8651 16.4395 35.5158 16.3794 35.1903 16.2492C34.8647 16.119 34.5704 15.9216 34.3264 15.6699C34.0832 15.4071 33.8943 15.0988 33.7705 14.7629C33.6467 14.4269 33.5904 14.0698 33.605 13.7121C33.5925 13.3579 33.6549 13.0051 33.7881 12.6766C33.9212 12.3482 34.1222 12.0515 34.3778 11.8061C34.8708 11.3328 35.5274 11.0679 36.2108 11.0667L36.284 11.0675C37.1084 11.0675 37.7553 11.3136 38.2248 11.8059C38.4617 12.0617 38.6458 12.3618 38.7666 12.6888C38.8874 13.0159 38.9425 13.3636 38.9288 13.7121C38.9433 14.0713 38.8854 14.4297 38.7586 14.7661C38.6317 15.1025 38.4385 15.4099 38.1904 15.6701C37.94 15.9168 37.6427 16.111 37.3162 16.2412C36.9896 16.3714 36.6403 16.4349 36.2888 16.4281L36.2154 16.4255ZM33.8454 34.9383V18.5207C33.8452 18.3145 33.9368 18.2115 34.1202 18.2115H38.345C38.528 18.2115 38.6196 18.3145 38.6198 18.5207V34.9383C38.6198 35.1676 38.5282 35.2821 38.345 35.2819H34.1546C33.9594 35.2819 33.8566 35.1791 33.8464 34.9735L33.8454 34.9383Z" fill="#FF9A00"/>
</g>
<defs>
<clipPath id="clip0_619_1354">
<rect width="51.2031" height="50" fill="white"/>
</clipPath>
</defs>
</svg>
