<svg width="52" height="50" viewBox="0 0 52 50" fill="none" xmlns="http://www.w3.org/2000/svg">
<g clip-path="url(#clip0_891_756)">
<path d="M25.6022 0C11.4654 0 0.00195312 11.4614 0.00195312 25.6002C0.00195312 36.911 7.33715 46.5072 17.509 49.8922C18.7884 50.1292 19.2582 49.3368 19.2582 48.6606C19.2582 48.0502 19.2342 46.0336 19.2234 43.8946C12.1014 45.443 10.5986 40.874 10.5986 40.874C9.43395 37.915 7.75595 37.128 7.75595 37.128C5.43335 35.5392 7.93115 35.572 7.93115 35.572C10.5018 35.7524 11.8554 38.21 11.8554 38.21C14.1388 42.1236 17.8444 40.9922 19.3052 40.338C19.535 38.6836 20.1984 37.554 20.9306 36.9148C15.2444 36.2676 9.26695 34.0724 9.26695 24.2632C9.26695 21.4682 10.267 19.1844 11.9046 17.3916C11.6388 16.7468 10.7626 14.1432 12.1526 10.6168C12.1526 10.6168 14.3024 9.9288 19.1946 13.241C21.2366 12.6738 23.4266 12.3894 25.6022 12.3796C27.7778 12.3894 29.9696 12.6736 32.0154 13.241C36.9016 9.929 39.0484 10.617 39.0484 10.617C40.4418 14.143 39.5652 16.747 39.2994 17.3916C40.9408 19.1844 41.934 21.4682 41.934 24.2632C41.934 34.0958 35.9452 36.2608 30.2446 36.8946C31.1628 37.689 31.981 39.247 31.981 41.6354C31.981 45.0606 31.9514 47.8174 31.9514 48.6606C31.9514 49.342 32.4122 50.1402 33.7098 49.8886C43.876 46.5 51.202 36.9074 51.202 25.6004C51.202 11.4614 39.7402 0 25.6022 0ZM9.59015 36.468C9.53375 36.5952 9.33355 36.6334 9.15135 36.546C8.96555 36.4626 8.86135 36.2892 8.92135 36.1616C8.97655 36.0306 9.17715 35.994 9.36235 36.0818C9.54835 36.1654 9.65435 36.3404 9.59015 36.468ZM10.8494 37.5916C10.7274 37.7048 10.4886 37.6522 10.3266 37.4734C10.1592 37.295 10.1278 37.0562 10.2516 36.9414C10.3776 36.8282 10.609 36.8812 10.7768 37.0596C10.9444 37.2402 10.9768 37.4772 10.8494 37.5916ZM11.7134 39.0292C11.5564 39.1382 11.3 39.036 11.1414 38.8084C10.9846 38.5808 10.9846 38.3078 11.1448 38.1984C11.3038 38.089 11.5564 38.1874 11.717 38.4134C11.8734 38.6448 11.8734 38.9178 11.7132 39.0294M13.174 40.6944C13.0338 40.8492 12.7348 40.8076 12.516 40.5964C12.2922 40.39 12.23 40.0972 12.3708 39.9424C12.5128 39.7872 12.8134 39.8308 13.0338 40.0404C13.2558 40.2464 13.3238 40.5414 13.174 40.6944ZM15.0624 41.2564C15.0004 41.457 14.7124 41.5482 14.4226 41.463C14.133 41.3752 13.9436 41.1404 14.002 40.9378C14.0622 40.7358 14.3514 40.641 14.6434 40.7322C14.9326 40.8194 15.1226 41.0526 15.0624 41.2566M17.2112 41.4952C17.2184 41.7062 16.9726 41.8812 16.6682 41.8852C16.3622 41.892 16.1144 41.7212 16.111 41.5132C16.111 41.3002 16.3514 41.1268 16.6576 41.1216C16.962 41.1156 17.2112 41.2852 17.2112 41.4952ZM19.3222 41.4142C19.3586 41.6202 19.1472 41.8318 18.8448 41.8882C18.5478 41.9424 18.2726 41.8152 18.2348 41.611C18.198 41.3998 18.4134 41.1882 18.71 41.1336C19.0128 41.081 19.2836 41.2048 19.3222 41.4142Z" fill="black"/>
</g>
<defs>
<clipPath id="clip0_891_756">
<rect width="51.2031" height="50" fill="white"/>
</clipPath>
</defs>
</svg>
