<svg width="375" height="732" viewBox="0 0 375 732" fill="none" xmlns="http://www.w3.org/2000/svg">
<mask id="mask0_528_975" style="mask-type:alpha" maskUnits="userSpaceOnUse" x="19" y="144" width="339" height="477">
<rect x="19" y="144" width="339" height="477" fill="black"/>
<rect x="21.5" y="146.5" width="334" height="472" stroke="#252323" stroke-opacity="0.75" stroke-width="5"/>
</mask>
<g mask="url(#mask0_528_975)">
<line y1="-2.5" x2="847.383" y2="-2.49996" transform="matrix(-4.37114e-08 1 1 4.37114e-08 210 -115.931)" stroke="#252323" stroke-opacity="0.75" stroke-width="5"/>
<line y1="-2.5" x2="847.383" y2="-2.49996" transform="matrix(-4.37114e-08 1 1 4.37114e-08 43 -115.931)" stroke="#252323" stroke-opacity="0.75" stroke-width="5"/>
<line y1="-2.5" x2="847.383" y2="-2.49996" transform="matrix(-4.37114e-08 1 1 4.37114e-08 238 -115.931)" stroke="#252323" stroke-opacity="0.75" stroke-width="5"/>
<line y1="-2.5" x2="847.383" y2="-2.49996" transform="matrix(-4.37114e-08 1 1 4.37114e-08 71 -115.931)" stroke="#252323" stroke-opacity="0.75" stroke-width="5"/>
<line y1="-2.5" x2="847.383" y2="-2.49996" transform="matrix(-4.37114e-08 1 1 4.37114e-08 266 -115.931)" stroke="#252323" stroke-opacity="0.75" stroke-width="5"/>
<line y1="-2.5" x2="847.383" y2="-2.49996" transform="matrix(-4.37114e-08 1 1 4.37114e-08 98 -115.931)" stroke="#252323" stroke-opacity="0.75" stroke-width="5"/>
<line y1="-2.5" x2="847.383" y2="-2.49996" transform="matrix(-4.37114e-08 1 1 4.37114e-08 294 -115.931)" stroke="#252323" stroke-opacity="0.75" stroke-width="5"/>
<line y1="-2.5" x2="847.383" y2="-2.49996" transform="matrix(-4.37114e-08 1 1 4.37114e-08 126 -115.931)" stroke="#252323" stroke-opacity="0.75" stroke-width="5"/>
<line y1="-2.5" x2="847.383" y2="-2.49996" transform="matrix(-4.37114e-08 1 1 4.37114e-08 322 -115.931)" stroke="#252323" stroke-opacity="0.75" stroke-width="5"/>
<line y1="-2.5" x2="847.383" y2="-2.49996" transform="matrix(-4.37114e-08 1 1 4.37114e-08 154 -115.931)" stroke="#252323" stroke-opacity="0.75" stroke-width="5"/>
<line y1="-2.5" x2="847.383" y2="-2.49996" transform="matrix(-4.37114e-08 1 1 4.37114e-08 350 -115.931)" stroke="#252323" stroke-opacity="0.75" stroke-width="5"/>
<line y1="-2.5" x2="847.383" y2="-2.49996" transform="matrix(-4.37114e-08 1 1 4.37114e-08 182 -115.931)" stroke="#252323" stroke-opacity="0.75" stroke-width="5"/>
<line x1="-118" y1="328.477" x2="1322" y2="328.477" stroke="#252323" stroke-opacity="0.75" stroke-width="5"/>
<line x1="-118" y1="514.204" x2="1322" y2="514.204" stroke="#252323" stroke-opacity="0.75" stroke-width="5"/>
<line x1="-118" y1="142.749" x2="1322" y2="142.749" stroke="#252323" stroke-opacity="0.75" stroke-width="5"/>
<line x1="-118" y1="607.068" x2="1322" y2="607.068" stroke="#252323" stroke-opacity="0.75" stroke-width="5"/>
<line x1="-118" y1="235.613" x2="1322" y2="235.613" stroke="#252323" stroke-opacity="0.75" stroke-width="5"/>
<line x1="-118" y1="421.34" x2="1322" y2="421.34" stroke="#252323" stroke-opacity="0.75" stroke-width="5"/>
<line x1="-118" y1="351.693" x2="1322" y2="351.693" stroke="#252323" stroke-opacity="0.75" stroke-width="5"/>
<line x1="-118" y1="537.42" x2="1322" y2="537.42" stroke="#252323" stroke-opacity="0.75" stroke-width="5"/>
<line x1="-118" y1="165.965" x2="1322" y2="165.965" stroke="#252323" stroke-opacity="0.75" stroke-width="5"/>
<line x1="-118" y1="258.829" x2="1322" y2="258.829" stroke="#252323" stroke-opacity="0.75" stroke-width="5"/>
<line x1="-118" y1="444.556" x2="1322" y2="444.556" stroke="#252323" stroke-opacity="0.75" stroke-width="5"/>
<line x1="-118" y1="305.261" x2="1322" y2="305.261" stroke="#252323" stroke-opacity="0.75" stroke-width="5"/>
<line x1="-118" y1="490.988" x2="1322" y2="490.988" stroke="#252323" stroke-opacity="0.75" stroke-width="5"/>
<line x1="-118" y1="583.852" x2="1322" y2="583.852" stroke="#252323" stroke-opacity="0.75" stroke-width="5"/>
<line x1="-118" y1="212.397" x2="1322" y2="212.397" stroke="#252323" stroke-opacity="0.75" stroke-width="5"/>
<line x1="-118" y1="398.124" x2="1322" y2="398.124" stroke="#252323" stroke-opacity="0.75" stroke-width="5"/>
<line x1="-118" y1="282.045" x2="1322" y2="282.045" stroke="#252323" stroke-opacity="0.75" stroke-width="5"/>
<line x1="-118" y1="467.772" x2="1322" y2="467.772" stroke="#252323" stroke-opacity="0.75" stroke-width="5"/>
<line x1="-118" y1="560.636" x2="1322" y2="560.636" stroke="#252323" stroke-opacity="0.75" stroke-width="5"/>
<line x1="-118" y1="189.181" x2="1322" y2="189.181" stroke="#252323" stroke-opacity="0.75" stroke-width="5"/>
<line x1="-118" y1="374.909" x2="1322" y2="374.909" stroke="#252323" stroke-opacity="0.75" stroke-width="5"/>
</g>
</svg>
