<svg width="375" height="757" viewBox="0 0 375 757" fill="5B5B5B" xmlns="http://www.w3.org/2000/svg">
<path d="M-49.5924 455.232L-43.7574 453.835L-43.7574 453.835L-49.5924 455.232ZM-46.8933 395.607L-52.5888 393.72L-52.6026 393.762L-52.6159 393.804L-46.8933 395.607ZM49.6898 294.156L52.0227 299.684L52.0227 299.684L49.6898 294.156ZM100.262 283.666L100.309 277.666L100.309 277.666L100.262 283.666ZM149.43 294.202L151.878 288.725L151.865 288.719L151.851 288.713L149.43 294.202ZM223.831 368.792L218.411 371.365L218.432 371.41L218.454 371.455L223.831 368.792ZM235.813 418.386L241.813 418.375L241.813 418.375L235.813 418.386ZM220.569 468.259L215.486 465.071L215.414 465.186L215.348 465.304L220.569 468.259ZM217.124 465.757L222.09 469.125L222.165 469.014L222.235 468.9L217.124 465.757ZM231.363 417.856L225.363 417.808L225.362 417.869L225.363 417.93L231.363 417.856ZM220.105 370.495L214.684 373.066L214.706 373.112L214.729 373.159L220.105 370.495ZM147.664 298.396L145.229 303.879L145.264 303.895L145.3 303.91L147.664 298.396ZM100.227 288.121L100.274 282.121L100.274 282.121L100.227 288.121ZM50.8939 298.373L53.2137 303.906L53.2272 303.901L53.2406 303.895L50.8939 298.373ZM-42.6959 396.878L-48.4015 395.022L-48.4015 395.022L-42.6959 396.878ZM-45.6249 454.274L-39.7927 452.865L-39.7927 452.865L-45.6249 454.274ZM14.4576 524.295L12.6134 530.005L12.6361 530.012L12.6589 530.019L14.4576 524.295ZM45.6713 520.582L49.0854 525.516L49.5112 525.222L49.8803 524.858L45.6713 520.582ZM38.554 544.285L32.5567 544.105L32.5527 544.238L32.5546 544.371L38.554 544.285ZM88.1573 593.682L88.2375 599.681L88.2986 599.68L88.3597 599.678L88.1573 593.682ZM168.975 514.133L174.968 514.43L174.968 514.43L168.975 514.133ZM90.8989 434.812L90.6966 428.815L90.6303 428.817L90.5641 428.821L90.8989 434.812ZM90.9302 430.852L90.8724 424.852L90.818 424.853L90.7635 424.854L90.9302 430.852ZM172.935 514.164L166.946 513.79L166.939 513.899L166.937 514.007L172.935 514.164ZM88.126 597.641L88.0643 591.642L88.0078 591.642L87.9513 591.644L88.126 597.641ZM34.5591 548.709L28.6129 549.51L28.6314 549.648L28.6564 549.785L34.5591 548.709ZM39.1742 528.451L44.2946 531.578L52.8926 517.502L37.26 522.764L39.1742 528.451ZM8.74794 526.478L6.50471 532.042L6.53272 532.054L6.56085 532.065L8.74794 526.478ZM-16.5169 502.235C-30.3543 488.177 -39.3912 472.067 -43.7574 453.835L-55.4274 456.63C-50.5297 477.081 -40.3671 495.111 -25.0691 510.653L-16.5169 502.235ZM-43.7574 453.835C-48.1168 435.631 -47.3009 416.864 -41.1707 397.411L-52.6159 393.804C-59.3482 415.168 -60.3317 436.151 -55.4274 456.63L-43.7574 453.835ZM-41.1978 397.495C-34.7984 378.181 -22.5439 359.433 -4.10657 341.285L-12.5245 332.733C-32.0016 351.904 -45.4656 372.222 -52.5888 393.72L-41.1978 397.495ZM-4.10657 341.285L5.87091 331.464L-2.54699 322.912L-12.5245 332.733L-4.10657 341.285ZM5.87091 331.464C20.5474 317.018 35.9371 306.472 52.0227 299.684L47.3569 288.628C29.6704 296.092 13.0416 307.568 -2.54699 322.912L5.87091 331.464ZM52.0227 299.684C68.2234 292.847 84.2734 289.54 100.214 289.666L100.309 277.666C82.5929 277.526 64.9283 281.213 47.3569 288.628L52.0227 299.684ZM100.214 289.666C116.56 289.795 132.141 293.136 147.009 299.692L151.851 288.713C135.479 281.492 118.281 277.809 100.309 277.666L100.214 289.666ZM146.982 299.68C162.047 306.414 175.71 315.983 187.98 328.45L196.533 320.032C183.269 306.556 168.381 296.101 151.878 288.725L146.982 299.68ZM187.98 328.45C200.968 341.644 211.092 355.95 218.411 371.365L229.251 366.218C221.315 349.504 210.389 334.109 196.533 320.032L187.98 328.45ZM218.454 371.455C226.027 386.744 229.785 402.372 229.813 418.397L241.813 418.375C241.781 400.409 237.551 382.975 229.208 366.129L218.454 371.455ZM229.813 418.397C229.842 434.119 225.158 449.649 215.486 465.071L225.652 471.447C236.367 454.361 241.846 436.642 241.813 418.375L229.813 418.397ZM215.348 465.304C215.355 465.291 215.395 465.221 215.477 465.114C215.558 465.007 215.699 464.839 215.912 464.649C216.351 464.256 217.138 463.738 218.259 463.56C219.399 463.379 220.358 463.634 220.983 463.928C221.55 464.195 221.838 464.487 221.872 464.522L213.32 472.94C214.39 474.027 216.774 475.945 220.138 475.412C223.38 474.898 225.08 472.471 225.791 471.214L215.348 465.304ZM221.872 464.522C221.921 464.572 222.486 465.158 222.667 466.299C222.871 467.582 222.443 468.604 222.09 469.125L212.158 462.389C211.138 463.894 210.455 465.904 210.815 468.178C211.153 470.311 212.288 471.891 213.32 472.94L221.872 464.522ZM222.235 468.9C232.436 452.313 237.581 435.244 237.362 417.781L225.363 417.93C225.549 432.81 221.201 447.675 212.013 462.614L222.235 468.9ZM237.363 417.903C237.498 400.735 233.505 384.024 225.481 367.831L214.729 373.159C221.972 387.776 225.483 402.639 225.363 417.808L237.363 417.903ZM225.527 367.924C217.907 351.853 207.217 336.874 193.539 322.978L184.987 331.396C197.826 344.439 207.698 358.332 214.684 373.066L225.527 367.924ZM193.539 322.978C180.589 309.821 166.083 299.764 150.028 292.881L145.3 303.91C159.831 310.14 173.058 319.276 184.987 331.396L193.539 322.978ZM150.1 292.913C134.224 285.86 117.598 282.258 100.274 282.121L100.179 294.121C115.852 294.245 130.852 297.493 145.229 303.879L150.1 292.913ZM100.274 282.121C82.8894 281.983 65.6331 285.59 48.5472 292.851L53.2406 303.895C68.9343 297.226 84.5664 293.997 100.179 294.121L100.274 282.121ZM48.5741 292.839C31.5393 299.981 15.4873 311.054 0.399277 325.905L8.81718 334.457C22.9964 320.501 37.8015 310.368 53.2137 303.906L48.5741 292.839ZM0.399277 325.905L-9.57821 335.726L-1.16031 344.278L8.81718 334.457L0.399277 325.905ZM-9.57821 335.726C-28.5561 354.406 -41.6131 374.159 -48.4015 395.022L-36.9904 398.735C-30.9266 380.099 -19.0991 361.935 -1.16031 344.278L-9.57821 335.726ZM-48.4015 395.022C-55.139 415.727 -56.2146 435.992 -51.457 455.683L-39.7927 452.865C-43.982 435.526 -43.105 417.526 -36.9904 398.735L-48.4015 395.022ZM-51.457 455.683C-46.7143 475.312 -36.8727 492.674 -22.0758 507.707L-13.5237 499.289C-26.88 485.72 -35.5885 470.265 -39.7927 452.865L-51.457 455.683ZM-22.0758 507.707C-11.5323 518.419 0.0245236 525.939 12.6134 530.005L16.3018 518.586C5.84997 515.21 -4.09809 508.865 -13.5237 499.289L-22.0758 507.707ZM12.6589 530.019C25.9947 534.21 38.3771 532.926 49.0854 525.516L42.2573 515.648C35.0478 520.637 26.6211 521.828 16.2562 518.571L12.6589 530.019ZM49.8803 524.858C49.72 525.016 48.7722 525.864 47.1146 525.851C45.4571 525.838 44.5228 524.975 44.365 524.815L52.9172 516.397C51.7773 515.239 49.857 513.873 47.2095 513.852C44.5621 513.831 42.6204 515.166 41.4624 516.306L49.8803 524.858ZM44.365 524.815C44.2073 524.654 43.3589 523.707 43.372 522.049C43.3851 520.391 44.2484 519.457 44.4087 519.299L52.8266 527.852C53.9846 526.712 55.3507 524.791 55.3716 522.144C55.3925 519.496 54.057 517.555 52.9172 516.397L44.365 524.815ZM44.4087 519.299C37.0841 526.509 32.837 534.805 32.5567 544.105L44.5513 544.466C44.7184 538.92 47.1804 533.409 52.8266 527.852L44.4087 519.299ZM32.5546 544.371C32.6846 553.454 36.2174 561.441 42.7851 568.114L51.3372 559.696C46.7746 555.06 44.6359 549.968 44.5534 544.2L32.5546 544.371ZM42.7851 568.114L63.9 589.565L72.4521 581.147L51.3372 559.696L42.7851 568.114ZM63.9 589.565C70.5829 596.355 78.8047 599.807 88.2375 599.681L88.0771 587.682C81.9985 587.764 76.8995 585.666 72.4521 581.147L63.9 589.565ZM88.3597 599.678C97.8813 599.357 106.24 595.597 113.229 588.718L104.811 580.166C99.8268 585.072 94.2772 587.472 87.9549 587.685L88.3597 599.678ZM113.229 588.718L163.865 538.877L155.447 530.325L104.811 580.166L113.229 588.718ZM163.865 538.877C170.721 532.128 174.498 523.899 174.968 514.43L162.982 513.835C162.667 520.2 160.23 525.616 155.447 530.325L163.865 538.877ZM174.968 514.43C175.443 504.835 172.233 496.416 165.492 489.568L156.94 497.986C161.329 502.445 163.292 507.596 162.982 513.835L174.968 514.43ZM165.492 489.568L115.406 438.683L106.854 447.1L156.94 497.986L165.492 489.568ZM115.406 438.683C108.665 431.834 100.297 428.491 90.6966 428.815L91.1013 440.808C97.3445 440.598 102.464 442.641 106.854 447.1L115.406 438.683ZM90.5641 428.821C81.2698 429.34 73.1245 433.084 66.3222 439.779L74.7401 448.331C79.5783 443.569 85.0115 441.15 91.2337 440.802L90.5641 428.821ZM66.3222 439.779C66.4825 439.622 67.4304 438.773 69.0879 438.786C70.7454 438.799 71.6797 439.663 71.8375 439.823L63.2854 448.241C64.4252 449.399 66.3455 450.765 68.993 450.786C71.6404 450.807 73.5821 449.471 74.7401 448.331L66.3222 439.779ZM71.8375 439.823C71.838 439.823 71.9937 439.979 72.1709 440.304C72.3566 440.644 72.5815 441.203 72.6324 441.941C72.7499 443.646 71.8955 444.747 71.5483 445.089L63.1304 436.537C61.7855 437.86 60.4692 439.989 60.6608 442.767C60.8364 445.312 62.2089 447.147 63.2854 448.241L71.8375 439.823ZM71.5483 445.089C76.9334 439.788 83.3448 437.065 91.0969 436.85L90.7635 424.854C80.0319 425.153 70.7161 429.07 63.1304 436.537L71.5483 445.089ZM90.988 436.852C98.9272 436.775 105.041 439.272 109.847 444.154L118.399 435.736C111.092 428.313 101.744 424.748 90.8724 424.852L90.988 436.852ZM109.847 444.154L159.933 495.039L168.485 486.621L118.399 435.736L109.847 444.154ZM159.933 495.039C165.123 500.312 167.407 506.424 166.946 513.79L178.923 514.538C179.596 503.764 176.063 494.32 168.485 486.621L159.933 495.039ZM166.937 514.007C166.742 521.479 163.972 527.826 158.393 533.318L166.811 541.87C174.535 534.268 178.654 524.995 178.933 514.32L166.937 514.007ZM158.393 533.318L107.757 583.159L116.175 591.711L166.811 541.87L158.393 533.318ZM107.757 583.159C101.98 588.845 95.496 591.565 88.0643 591.642L88.1876 603.641C98.907 603.531 108.316 599.447 116.175 591.711L107.757 583.159ZM87.9513 591.644C80.7459 591.854 74.6995 589.418 69.4588 584.094L60.9067 592.512C68.4332 600.158 77.6823 603.948 88.3006 603.639L87.9513 591.644ZM69.4588 584.094L48.344 562.642L39.7918 571.06L60.9067 592.512L69.4588 584.094ZM48.344 562.642C44.0911 558.322 41.5053 553.357 40.4618 547.633L28.6564 549.785C30.143 557.94 33.8964 565.071 39.7918 571.06L48.344 562.642ZM40.5053 547.907C39.7729 542.474 40.9248 537.095 44.2946 531.578L34.0539 525.323C29.3999 532.942 27.475 541.069 28.6129 549.51L40.5053 547.907ZM37.26 522.764C29.8062 525.273 21.1466 524.888 10.935 520.89L6.56085 532.065C18.7196 536.824 30.3442 537.754 41.0884 534.137L37.26 522.764ZM10.9912 520.913C0.956487 516.868 -8.21082 510.674 -16.5169 502.235L-25.0691 510.653C-15.6976 520.174 -5.17096 527.336 6.50471 532.042L10.9912 520.913ZM191.263 677.975L194.73 682.872L194.736 682.867L194.743 682.862L191.263 677.975ZM163.49 684.685L162.65 690.626L162.663 690.628L162.675 690.629L163.49 684.685ZM139.845 670.143L144.742 666.676L144.721 666.645L144.699 666.615L139.845 670.143ZM127.359 652.967L122.472 656.448L122.489 656.472L122.506 656.495L127.359 652.967ZM119.184 622.708L113.251 621.813L113.243 621.865L113.236 621.917L119.184 622.708ZM135.475 596.85L131.947 591.997L131.93 592.009L131.913 592.022L135.475 596.85ZM284.333 488.635L280.85 483.749L280.828 483.765L280.805 483.782L284.333 488.635ZM323.782 476.324L323.206 482.297L323.219 482.298L323.782 476.324ZM374.419 520.284L368.695 522.083L368.703 522.11L368.712 522.136L374.419 520.284ZM372.648 556.404L367.001 554.378L366.99 554.408L366.979 554.438L372.648 556.404ZM360.491 591.453L354.822 589.486L350.638 601.55L362.595 597.071L360.491 591.453ZM396.733 577.88L394.644 572.255L394.636 572.258L394.628 572.261L396.733 577.88ZM429.907 576.657L427.964 582.334L427.991 582.343L428.017 582.352L429.907 576.657ZM472.814 627.733L466.851 628.395L466.855 628.435L466.86 628.474L472.814 627.733ZM460.119 668.222L455.355 664.574L455.338 664.597L455.321 664.62L460.119 668.222ZM350.062 814.858L345.263 811.256L345.241 811.286L345.219 811.316L350.062 814.858ZM324.44 831.238L323.532 825.307L323.532 825.307L324.44 831.238ZM296.528 824.335L292.923 829.131L292.945 829.147L292.966 829.163L296.528 824.335ZM279.551 811.578L275.914 816.349L275.93 816.362L275.947 816.375L279.551 811.578ZM263.418 786.206L269.343 785.266L269.343 785.266L263.418 786.206ZM270.071 758.539L265.223 755.004L265.194 755.044L265.165 755.085L270.071 758.539ZM308.103 706.371L303.894 702.095L303.544 702.439L303.255 702.836L308.103 706.371ZM310.336 705.646L307.611 710.991L308.873 711.635L310.289 711.646L310.336 705.646ZM311.564 706.893L305.671 708.023L305.823 708.813L306.176 709.534L311.564 706.893ZM311.548 708.873L316.397 712.408L316.677 712.023L316.893 711.599L311.548 708.873ZM273.516 761.041L278.341 764.609L278.353 764.592L278.365 764.576L273.516 761.041ZM267.139 784.998L261.185 785.736L261.191 785.783L261.197 785.83L267.139 784.998ZM282.054 808.133L285.67 803.345L285.659 803.337L285.648 803.329L282.054 808.133ZM299.275 821.139L302.966 816.408L302.929 816.379L302.891 816.351L299.275 821.139ZM323.481 827.27L324.404 833.199L324.447 833.192L324.489 833.185L323.481 827.27ZM346.866 812.11L342.066 808.51L342.058 808.521L342.05 808.532L346.866 812.11ZM456.674 665.719L451.881 662.11L451.874 662.119L456.674 665.719ZM468.266 639.577L462.324 638.744L462.317 638.793L462.311 638.842L468.266 639.577ZM465.737 615.055L460.108 617.131L460.12 617.164L460.133 617.197L465.737 615.055ZM428.886 580.609L426.885 586.265L426.914 586.276L426.943 586.286L428.886 580.609ZM397.691 581.847L395.593 576.226L395.587 576.228L397.691 581.847ZM358.223 596.632L356.118 591.013L355.844 591.116L355.582 591.244L358.223 596.632ZM355.526 593.393L349.849 591.451L349.849 591.451L355.526 593.393ZM368.7 554.888L363.039 552.901L363.031 552.924L363.023 552.946L368.7 554.888ZM370.451 521.243L364.726 523.037L364.735 523.066L364.744 523.095L370.451 521.243ZM323.751 480.284L323.041 486.242L323.05 486.243L323.059 486.244L323.751 480.284ZM286.781 492.119L290.307 496.973L290.312 496.97L286.781 492.119ZM138.172 600.089L141.674 604.961L141.686 604.952L141.699 604.943L138.172 600.089ZM123.139 623.234L117.207 622.339L117.198 622.397L117.19 622.456L123.139 623.234ZM130.598 650.27L125.726 653.772L125.739 653.791L125.753 653.81L130.598 650.27ZM143.33 667.696L138.485 671.236L138.513 671.273L138.541 671.311L143.33 667.696ZM164.515 680.238L165.441 674.31L165.395 674.303L165.348 674.296L164.515 680.238ZM188.566 674.736L192.036 679.631L192.044 679.625L192.053 679.619L188.566 674.736ZM254.027 627.982L250.846 622.895L250.689 622.993L250.54 623.1L254.027 627.982ZM258.735 627.277L261.69 622.055L261.577 621.991L261.46 621.932L258.735 627.277ZM260.434 631.498L254.523 630.465L254.493 630.637L254.473 630.811L260.434 631.498ZM260.967 657.984L255.05 658.98L255.058 659.025L255.066 659.07L260.967 657.984ZM293.625 690.664L292.762 696.602L292.826 696.611L292.89 696.619L293.625 690.664ZM318.128 690.611L317.347 684.661L317.319 684.665L317.291 684.669L318.128 690.611ZM337.7 688.043L337.085 682.075L337.002 682.083L336.92 682.094L337.7 688.043ZM339.914 689.793L333.914 689.745L333.914 689.745L339.914 689.793ZM337.914 692.252L338.65 698.207L338.99 698.165L339.323 698.084L337.914 692.252ZM319.086 694.578L318.351 688.623L318.348 688.624L319.086 694.578ZM292.604 694.616L293.314 688.658L293.314 688.658L292.604 694.616ZM256.746 659.683L250.845 660.77L250.853 660.813L250.862 660.856L256.746 659.683ZM256.225 631.712L262.18 632.443L263.84 618.923L252.744 626.825L256.225 631.712ZM187.795 673.078C180.762 678.058 173.04 679.938 164.305 678.741L162.675 690.629C174.378 692.234 185.171 689.64 194.73 682.872L187.795 673.078ZM164.33 678.744C156.109 677.582 149.682 673.652 144.742 666.676L134.949 673.61C141.758 683.227 151.093 688.992 162.65 690.626L164.33 678.744ZM144.699 666.615L132.212 649.439L122.506 656.495L134.992 673.671L144.699 666.615ZM132.246 649.487C126.169 640.953 123.951 632.37 125.131 623.499L113.236 621.917C111.609 634.143 114.842 645.734 122.472 656.448L132.246 649.487ZM125.116 623.604C126.421 614.96 130.883 607.694 139.037 601.678L131.913 592.022C121.479 599.719 115.08 609.692 113.251 621.813L125.116 623.604ZM139.003 601.703L287.861 493.488L280.805 483.782L131.947 591.997L139.003 601.703ZM287.817 493.52C300.213 484.681 311.95 481.21 323.206 482.297L324.359 470.352C309.566 468.923 295.003 473.658 280.85 483.749L287.817 493.52ZM323.219 482.298C335.052 483.415 345.52 488.501 354.761 497.889L363.313 489.472C352.257 478.24 339.222 471.755 324.346 470.351L323.219 482.298ZM354.761 497.889C360.875 504.101 365.557 512.102 368.695 522.083L380.143 518.485C376.521 506.963 370.948 497.228 363.313 489.472L354.761 497.889ZM368.712 522.136C371.762 531.533 371.377 542.185 367.001 554.378L378.295 558.431C383.368 544.299 384.163 530.871 380.126 518.432L368.712 522.136ZM366.979 554.438L354.822 589.486L366.16 593.419L378.317 558.371L366.979 554.438ZM362.595 597.071L398.837 583.498L394.628 572.261L358.387 585.834L362.595 597.071ZM398.821 583.504C409.47 579.551 419.093 579.298 427.964 582.334L431.849 570.98C419.987 566.922 407.494 567.484 394.644 572.255L398.821 583.504ZM428.017 582.352C437.924 585.639 445.94 590.522 452.233 596.916L460.785 588.498C453.002 580.591 443.283 574.774 431.796 570.962L428.017 582.352ZM452.233 596.916C460.57 605.385 465.451 615.79 466.851 628.395L478.778 627.071C477.097 611.932 471.109 598.986 460.785 588.498L452.233 596.916ZM466.86 628.474C468.333 640.301 464.783 652.259 455.355 664.574L464.884 671.869C475.795 657.615 480.709 642.581 478.768 626.992L466.86 628.474ZM455.321 664.62L345.263 811.256L354.86 818.46L464.918 671.823L455.321 664.62ZM345.219 811.316C339.2 819.546 332.004 824.009 323.532 825.307L325.349 837.168C337.36 835.328 347.246 828.872 354.905 818.4L345.219 811.316ZM323.532 825.307C314.873 826.633 307.176 824.733 300.089 819.506L292.966 829.163C302.612 836.278 313.523 838.98 325.349 837.168L323.532 825.307ZM300.132 819.538L283.156 806.781L275.947 816.375L292.923 829.131L300.132 819.538ZM283.189 806.807C275.033 800.588 270.637 793.424 269.343 785.266L257.492 787.145C259.341 798.812 265.701 808.563 275.914 816.349L283.189 806.807ZM269.343 785.266C268.027 776.962 269.829 769.306 274.977 761.993L265.165 755.085C258.299 764.837 255.665 775.625 257.492 787.145L269.343 785.266ZM274.92 762.074L312.951 709.905L303.255 702.836L265.223 755.004L274.92 762.074ZM312.312 710.647C312.31 710.649 312.289 710.669 312.25 710.702C312.211 710.734 312.148 710.784 312.059 710.844C311.888 710.959 311.58 711.139 311.137 711.283C310.098 711.62 308.792 711.594 307.611 710.991L313.062 700.301C308.854 698.155 305.315 700.697 303.894 702.095L312.312 710.647ZM310.289 711.646C309.255 711.638 307.924 711.25 306.862 710.171C305.944 709.238 305.721 708.284 305.671 708.023L317.457 705.763C317.248 704.677 316.742 703.102 315.414 701.753C313.943 700.258 312.077 699.66 310.384 699.646L310.289 711.646ZM306.176 709.534C305.978 709.129 305.798 708.544 305.804 707.838C305.809 707.131 305.998 706.55 306.203 706.148L316.893 711.599C318.087 709.259 318.107 706.611 316.952 704.253L306.176 709.534ZM306.7 705.339L268.668 757.507L278.365 764.576L316.397 712.408L306.7 705.339ZM268.692 757.474C262.458 765.904 259.906 775.426 261.185 785.736L273.094 784.259C272.201 777.063 273.901 770.613 278.341 764.609L268.692 757.474ZM261.197 785.83C262.713 796.651 268.767 805.686 278.46 812.937L285.648 803.329C277.954 797.572 274.065 791.184 273.081 784.166L261.197 785.83ZM278.438 812.921L295.66 825.927L302.891 816.351L285.67 803.345L278.438 812.921ZM295.585 825.87C303.984 832.421 313.733 834.858 324.404 833.199L322.559 821.341C315.058 822.508 308.67 820.858 302.966 816.408L295.585 825.87ZM324.489 833.185C335.469 831.314 344.555 825.281 351.682 815.689L342.05 808.532C336.502 815.999 329.998 820.073 322.474 821.355L324.489 833.185ZM351.666 815.711L461.474 669.32L451.874 662.119L342.066 808.51L351.666 815.711ZM461.467 669.329C468.594 659.865 473.002 650.182 474.221 640.311L462.311 638.842C461.414 646.114 458.095 653.859 451.881 662.11L461.467 669.329ZM474.208 640.409C475.561 630.755 474.643 621.549 471.342 612.912L460.133 617.197C462.651 623.785 463.419 630.928 462.324 638.744L474.208 640.409ZM471.367 612.979C468.335 604.758 463.81 597.558 457.792 591.444L449.24 599.862C454.025 604.724 457.647 610.458 460.108 617.131L471.367 612.979ZM457.792 591.444C450.518 584.054 441.477 578.575 430.828 574.932L426.943 586.286C436.04 589.398 443.42 593.949 449.24 599.862L457.792 591.444ZM430.886 574.952C419.777 571.023 407.908 571.629 395.593 576.226L399.79 587.468C409.981 583.664 418.908 583.444 426.885 586.265L430.886 574.952ZM395.587 576.228L356.118 591.013L360.327 602.251L399.796 587.466L395.587 576.228ZM355.582 591.244C356.773 590.661 358.079 590.655 359.113 591.009C359.553 591.159 359.859 591.345 360.028 591.462C360.115 591.523 360.178 591.574 360.216 591.607C360.255 591.64 360.275 591.661 360.277 591.663L351.725 600.081C353.123 601.501 356.622 604.099 360.863 602.02L355.582 591.244ZM360.277 591.663C360.686 592.079 361.116 592.748 361.284 593.623C361.443 594.455 361.291 595.076 361.203 595.336L349.849 591.451C349.422 592.698 349.181 594.226 349.499 595.884C349.825 597.586 350.661 599 351.725 600.081L360.277 591.663ZM361.203 595.336L374.377 556.831L363.023 552.946L349.849 591.451L361.203 595.336ZM374.362 556.875C379.067 543.469 379.884 530.869 376.158 519.39L364.744 523.095C367.462 531.467 367.111 541.298 363.039 552.901L374.362 556.875ZM376.177 519.449C372.862 508.87 367.597 499.811 360.32 492.418L351.768 500.836C357.585 506.746 361.925 514.098 364.726 523.037L376.177 519.449ZM360.32 492.418C350.115 482.05 338.117 475.912 324.443 474.324L323.059 486.244C333.782 487.489 343.313 492.246 351.768 500.836L360.32 492.418ZM324.461 474.326C310.657 472.682 296.847 477.368 283.249 487.268L290.312 496.97C302.271 488.262 313.108 485.059 323.041 486.242L324.461 474.326ZM283.254 487.265L134.645 595.235L141.699 604.943L290.307 496.973L283.254 487.265ZM134.67 595.217C124.927 602.219 118.875 611.284 117.207 622.339L129.072 624.13C130.19 616.727 134.159 610.362 141.674 604.961L134.67 595.217ZM117.19 622.456C115.738 633.55 118.751 644.068 125.726 653.772L135.47 646.769C130.041 639.215 128.082 631.709 129.089 624.013L117.19 622.456ZM125.753 653.81L138.485 671.236L148.174 664.156L135.442 646.731L125.753 653.81ZM138.541 671.311C144.873 679.698 153.348 684.732 163.682 686.18L165.348 674.296C158.212 673.296 152.564 669.969 148.118 664.081L138.541 671.311ZM163.589 686.166C173.981 687.79 183.584 685.623 192.036 679.631L185.095 669.841C179.277 673.966 172.847 675.467 165.441 674.31L163.589 686.166ZM192.053 679.619L257.514 632.865L250.54 623.1L185.078 669.853L192.053 679.619ZM257.208 633.069C257.656 632.789 257.724 632.845 257.461 632.884C257.313 632.906 257.086 632.919 256.805 632.877C256.521 632.834 256.248 632.744 256.009 632.622L261.46 621.932C257.489 619.907 253.563 621.196 250.846 622.895L257.208 633.069ZM255.779 632.499C255.662 632.432 255.457 632.294 255.238 632.053C255.012 631.806 254.828 631.512 254.702 631.2C254.453 630.581 254.564 630.23 254.523 630.465L266.344 632.531C266.649 630.788 266.65 628.745 265.834 626.719C264.983 624.604 263.462 623.058 261.69 622.055L255.779 632.499ZM254.473 630.811C253.351 640.554 253.53 649.952 255.05 658.98L266.884 656.988C265.567 649.164 265.39 640.904 266.394 632.184L254.473 630.811ZM255.066 659.07C256.856 668.793 261.133 677.184 267.903 684.061L276.455 675.643C271.439 670.547 268.242 664.36 266.868 656.898L255.066 659.07ZM267.903 684.061C274.725 690.992 283.077 695.194 292.762 696.602L294.488 684.727C287.363 683.691 281.418 680.685 276.455 675.643L267.903 684.061ZM292.89 696.619C301.932 697.735 310.63 697.726 318.964 696.552L317.291 684.669C310.098 685.682 302.462 685.709 294.36 684.709L292.89 696.619ZM318.908 696.56L338.48 693.992L336.92 682.094L317.347 684.661L318.908 696.56ZM338.315 694.011C338.276 694.015 337.986 694.044 337.535 693.957C337.061 693.865 336.355 693.632 335.647 693.072C334.04 691.802 333.911 690.147 333.914 689.745L345.913 689.84C345.927 688.118 345.434 685.512 343.089 683.659C340.942 681.961 338.503 681.928 337.085 682.075L338.315 694.011ZM333.914 689.745C333.917 689.391 334.028 688.501 334.75 687.612C335.458 686.742 336.259 686.479 336.505 686.42L339.323 698.084C340.892 697.705 342.688 696.872 344.061 695.183C345.45 693.474 345.9 691.515 345.913 689.84L333.914 689.745ZM337.179 686.297L318.351 688.623L319.822 700.533L338.65 698.207L337.179 686.297ZM318.348 688.624C310.083 689.649 301.742 689.662 293.314 688.658L291.894 700.574C301.269 701.691 310.583 701.679 319.825 700.532L318.348 688.624ZM293.314 688.658C285.859 687.77 279.286 684.507 273.461 678.59L264.909 687.007C272.507 694.726 281.545 699.341 291.894 700.574L293.314 688.658ZM273.461 678.59C267.696 672.732 264.137 666.068 262.63 658.51L250.862 660.856C252.847 670.815 257.58 679.562 264.909 687.007L273.461 678.59ZM262.647 658.597C261.191 650.691 261.008 641.987 262.18 632.443L250.269 630.981C248.972 641.547 249.137 651.491 250.845 660.77L262.647 658.597ZM252.744 626.825L187.782 673.087L194.743 682.862L259.705 636.599L252.744 626.825Z" fill="#D9D9D9"/>
</svg>
